<svg xmlns="http://www.w3.org/2000/svg" viewBox="0 0 100 100">
  <defs>
    <linearGradient id="pcGold" x1="0" y1="0" x2="0" y2="1">
      <stop offset="0" stop-color="#F5E3A8"/>
      <stop offset="0.45" stop-color="#C9A23F"/>
      <stop offset="1" stop-color="#8C6A22"/>
    </linearGradient>
    <mask id="flutes">
      <rect width="100" height="100" fill="black"/>
      <g fill="white">
        <circle cx="50" cy="50" r="45.2"/>
        <rect x="41.5" y="34.5" width="17" height="3.2"/>
        <polygon points="43.2,37.7 56.8,37.7 54.75,41.1 45.25,41.1"/>
        <polygon points="45.25,41.1 54.75,41.1 55.75,67.5 44.25,67.5"/>
        <rect x="42.5" y="67.5" width="15" height="2.8"/>
        <rect x="40.75" y="70.3" width="18.5" height="2.8"/>
        <polygon points="50,21.9 54.6,26.5 50,31.1 45.4,26.5"/>
      </g>
      <g stroke="black" stroke-width="0.75" fill="none">
        <line x1="47.66" y1="42.3" x2="47.27" y2="66.3"/>
        <line x1="50" y1="42.3" x2="50" y2="66.3"/>
        <line x1="52.34" y1="42.3" x2="52.73" y2="66.3"/>
      </g>
    </mask>
  </defs>
  <g mask="url(#flutes)">
    <g fill="url(#pcGold)">
      <rect x="41.5" y="34.5" width="17" height="3.2"/>
      <polygon points="43.2,37.7 56.8,37.7 54.75,41.1 45.25,41.1"/>
      <polygon points="45.25,41.1 54.75,41.1 55.75,67.5 44.25,67.5"/>
      <rect x="42.5" y="67.5" width="15" height="2.8"/>
      <rect x="40.75" y="70.3" width="18.5" height="2.8"/>
      <polygon points="50,21.9 54.6,26.5 50,31.1 45.4,26.5"/>
    </g>
  </g>
  <circle cx="50" cy="50" r="44" fill="none" stroke="url(#pcGold)" stroke-width="1.5"/>
  <circle cx="50" cy="50" r="39.5" fill="none" stroke="url(#pcGold)" stroke-width="0.55"/>
</svg>
